<?xml version="1.0" standalone="no"?><svg xmlns:xlink="http://www.w3.org/1999/xlink" xmlns="http://www.w3.org/2000/svg" viewBox="0 0 1200 720" preserveAspectRatio="xMaxYMax slice"><g transform="scale(1.5894039735099337)"><rect x="0" y="0" width="755" height="453" fill="#ffa90a"/><circle cx="37.75" cy="37.75" r="7.55" fill="#8e9ec7"/><circle cx="113.25" cy="37.75" r="7.55" fill="#e3a638"/><circle cx="188.75" cy="37.75" r="7.55" fill="#fea70e"/><circle cx="264.25" cy="37.75" r="7.55" fill="#dd6d87"/><circle cx="339.75" cy="37.75" r="7.55" fill="#f2923a"/><circle cx="415.25" cy="37.75" r="7.55" fill="#ea8358"/><circle cx="490.75" cy="37.75" r="7.55" fill="#e77e63"/><circle cx="566.25" cy="37.75" r="7.55" fill="#7c9de4"/><circle cx="641.75" cy="37.75" r="7.55" fill="#e37870"/><circle cx="717.25" cy="37.75" r="7.55" fill="#c7b73f"/><circle cx="37.75" cy="113.25" r="7.55" fill="#7a9ce8"/><circle cx="113.25" cy="113.25" r="7.55" fill="#d1a556"/><circle cx="188.75" cy="113.25" r="7.55" fill="#b5a285"/><circle cx="264.25" cy="113.25" r="7.55" fill="#fba910"/><circle cx="339.75" cy="113.25" r="7.55" fill="#daa548"/><circle cx="415.25" cy="113.25" r="7.55" fill="#e0727b"/><circle cx="490.75" cy="113.25" r="7.55" fill="#e5a735"/><circle cx="566.25" cy="113.25" r="7.55" fill="#f9aa0f"/><circle cx="641.75" cy="113.25" r="7.55" fill="#c5a36b"/><circle cx="717.25" cy="113.25" r="7.55" fill="#d9a549"/><circle cx="37.75" cy="188.75" r="7.55" fill="#9ea0ab"/><circle cx="113.25" cy="188.75" r="7.55" fill="#a4bf61"/><circle cx="188.75" cy="188.75" r="7.55" fill="#fca513"/><circle cx="264.25" cy="188.75" r="7.55" fill="#839dd9"/><circle cx="339.75" cy="188.75" r="7.55" fill="#f5982e"/><circle cx="415.25" cy="188.75" r="7.55" fill="#dc6b8b"/><circle cx="490.75" cy="188.75" r="7.55" fill="#c6b740"/><circle cx="566.25" cy="188.75" r="7.55" fill="#caa462"/><circle cx="641.75" cy="188.75" r="7.55" fill="#ef8d43"/><circle cx="717.25" cy="188.75" r="7.55" fill="#c9a464"/><circle cx="37.75" cy="264.25" r="7.55" fill="#c3a36f"/><circle cx="113.25" cy="264.25" r="7.55" fill="#d7629d"/><circle cx="188.75" cy="264.25" r="7.55" fill="#d96597"/><circle cx="264.25" cy="264.25" r="7.55" fill="#989fb7"/><circle cx="339.75" cy="264.25" r="7.55" fill="#f49632"/><circle cx="415.25" cy="264.25" r="7.55" fill="#2cdcd3"/><circle cx="490.75" cy="264.25" r="7.55" fill="#fba219"/><circle cx="566.25" cy="264.25" r="7.55" fill="#f18f3f"/><circle cx="641.75" cy="264.25" r="7.55" fill="#f39338"/><circle cx="717.25" cy="264.25" r="7.55" fill="#899ecf"/><circle cx="37.75" cy="339.75" r="7.55" fill="#d5a550"/><circle cx="113.25" cy="339.75" r="7.55" fill="#8f9ec5"/><circle cx="188.75" cy="339.75" r="7.55" fill="#db6a8d"/><circle cx="264.25" cy="339.75" r="7.55" fill="#ed894d"/><circle cx="339.75" cy="339.75" r="7.55" fill="#61cfa1"/><circle cx="415.25" cy="339.75" r="7.55" fill="#a5a0a1"/><circle cx="490.75" cy="339.75" r="7.55" fill="#fba910"/><circle cx="566.25" cy="339.75" r="7.55" fill="#919ec2"/><circle cx="641.75" cy="339.75" r="7.55" fill="#f89d23"/><circle cx="717.25" cy="339.75" r="7.55" fill="#79c98a"/><circle cx="37.75" cy="415.25" r="7.55" fill="#f49533"/><circle cx="113.25" cy="415.25" r="7.55" fill="#f99f1f"/><circle cx="188.75" cy="415.25" r="7.55" fill="#e0717d"/><circle cx="264.25" cy="415.25" r="7.55" fill="#57d2ab"/><circle cx="339.75" cy="415.25" r="7.55" fill="#f2923a"/><circle cx="415.25" cy="415.25" r="7.55" fill="#dda643"/><circle cx="490.75" cy="415.25" r="7.55" fill="#e8a731"/><circle cx="566.25" cy="415.25" r="7.55" fill="#f08e42"/><circle cx="641.75" cy="415.25" r="7.55" fill="#3cd8c5"/><circle cx="717.25" cy="415.25" r="7.55" fill="#6bcd97"/></g></svg>